<svg height="460pt" viewBox="-64 0 460 460.17091" width="460pt" xmlns="http://www.w3.org/2000/svg"><path d="m157.753906 455.921875c3.335938-.65625 6.734375-.949219 10.132813-.871094h3.796875c3.398437-.078125 6.789062.214844 10.121094.871094 76.910156 20.976563 130.582031-39.191406 149.820312-109.183594-13.089844-3.429687-23.734375-12.941406-28.609375-25.570312-4.871094-12.625-3.375-26.824219 4.019531-38.15625-12.324218-10.050781-17.925781-26.195313-14.476562-41.71875 3.449218-15.523438 15.355468-27.773438 30.777344-31.664063-22.011719-46.589844-67.210938-73.898437-139.621094-56.9375-4.519532 1.398438-9.203125 2.191406-13.929688 2.359375h-.339844c-4.613281-.121093-9.1875-.886719-13.589843-2.269531-108.269531-25.320312-155.7695315 48.398438-155.7695315 137.039062 0 89.289063 60.1601565 192.699219 157.6679685 166.101563zm0 0" fill="#00efd1"/><path d="m125.964844 117.53125 44.160156 9.507812 9.511719-44.160156c6.792969-33.332031-14.359375-65.964844-47.5625-73.367187l-44.148438-9.511719-9.511719 44.160156c-6.804687 33.332032 14.347657 65.96875 47.550782 73.371094zm0 0" fill="#00acea"/></svg>